<svg width="25" height="25" viewBox="0 0 25 25" fill="none" xmlns="http://www.w3.org/2000/svg">
<path d="M22.2222 0H2.77778C1.25 0 0 1.25 0 2.77778V22.2222C0 23.75 1.25 25 2.77778 25H22.2222C23.75 25 25 23.75 25 22.2222V2.77778C25 1.25 23.75 0 22.2222 0ZM6.94444 19.4444C6.18056 19.4444 5.55556 18.8194 5.55556 18.0556V11.1111C5.55556 10.3472 6.18056 9.72222 6.94444 9.72222C7.70833 9.72222 8.33333 10.3472 8.33333 11.1111V18.0556C8.33333 18.8194 7.70833 19.4444 6.94444 19.4444ZM12.5 19.4444C11.7361 19.4444 11.1111 18.8194 11.1111 18.0556V6.94444C11.1111 6.18056 11.7361 5.55556 12.5 5.55556C13.2639 5.55556 13.8889 6.18056 13.8889 6.94444V18.0556C13.8889 18.8194 13.2639 19.4444 12.5 19.4444ZM18.0556 19.4444C17.2917 19.4444 16.6667 18.8194 16.6667 18.0556V15.2778C16.6667 14.5139 17.2917 13.8889 18.0556 13.8889C18.8194 13.8889 19.4444 14.5139 19.4444 15.2778V18.0556C19.4444 18.8194 18.8194 19.4444 18.0556 19.4444Z" fill="#666666"/>
</svg>
