<svg width="24" height="25" viewBox="0 0 24 25" fill="none" xmlns="http://www.w3.org/2000/svg">
<path d="M9.68121 0.679012C10.2015 0.240501 10.8601 0 11.5405 0C12.221 0 12.8795 0.240501 13.3998 0.679012L22.0552 7.98159C22.7066 8.52912 23.081 9.33568 23.081 10.1871V22.756C23.081 23.3512 22.8446 23.9219 22.4238 24.3427C22.0029 24.7636 21.4322 25 20.837 25H16.9902C16.3951 25 15.8243 24.7636 15.4035 24.3427C14.9826 23.9219 14.7462 23.3512 14.7462 22.756V16.3446C14.7462 16.0896 14.6449 15.8449 14.4645 15.6646C14.2842 15.4842 14.0396 15.3829 13.7845 15.3829H9.29653C9.04146 15.3829 8.79685 15.4842 8.61649 15.6646C8.43614 15.8449 8.33482 16.0896 8.33482 16.3446V22.756C8.33482 23.3512 8.0984 23.9219 7.67757 24.3427C7.25674 24.7636 6.68597 25 6.09083 25H2.24399C1.9493 25 1.6575 24.942 1.38525 24.8292C1.113 24.7164 0.865623 24.5511 0.657249 24.3427C0.448876 24.1344 0.283585 23.887 0.170814 23.6147C0.0580426 23.3425 0 23.0507 0 22.756V10.1858C0 9.33568 0.374425 8.52913 1.02582 7.98031L9.68121 0.679012Z" fill="#666666"/>
</svg>
