<svg width="23" height="25" viewBox="0 0 23 25" fill="none" xmlns="http://www.w3.org/2000/svg">
<path d="M20 2.5H14.775C14.25 1.05 12.875 0 11.25 0C9.625 0 8.25 1.05 7.725 2.5H2.5C1.125 2.5 0 3.625 0 5V22.5C0 23.875 1.125 25 2.5 25H20C21.375 25 22.5 23.875 22.5 22.5V5C22.5 3.625 21.375 2.5 20 2.5ZM11.25 2.1875C11.7625 2.1875 12.1875 2.6125 12.1875 3.125C12.1875 3.6375 11.7625 4.0625 11.25 4.0625C10.7375 4.0625 10.3125 3.6375 10.3125 3.125C10.3125 2.6125 10.7375 2.1875 11.25 2.1875ZM11.25 6.25C13.6625 6.25 15.625 8.2125 15.625 10.625C15.625 13.0375 13.6625 15 11.25 15C8.8375 15 6.875 13.0375 6.875 10.625C6.875 8.2125 8.8375 6.25 11.25 6.25ZM20 22.5H2.5V22.2125C2.5 21.4375 2.85 20.7125 3.45 20.2375C5.5875 18.525 8.3 17.5 11.25 17.5C14.2 17.5 16.9125 18.525 19.05 20.2375C19.65 20.7125 20 21.45 20 22.2125V22.5Z" fill="#666666"/>
</svg>
