<svg width="23" height="25" viewBox="0 0 23 25" fill="none" xmlns="http://www.w3.org/2000/svg">
<path d="M20 2.5H14.775C14.25 1.05 12.875 0 11.25 0C9.625 0 8.25 1.05 7.725 2.5H2.5C1.125 2.5 0 3.625 0 5V22.5C0 23.875 1.125 25 2.5 25H20C21.375 25 22.5 23.875 22.5 22.5V5C22.5 3.625 21.375 2.5 20 2.5ZM11.25 2.5C11.9375 2.5 12.5 3.0625 12.5 3.75C12.5 4.4375 11.9375 5 11.25 5C10.5625 5 10 4.4375 10 3.75C10 3.0625 10.5625 2.5 11.25 2.5ZM8.75 20L3.75 15L5.5125 13.2375L8.75 16.4625L16.9875 8.225L18.75 10L8.75 20Z" fill="#666666"/>
</svg>
